# xmcd
#
# Track frame offsets:
#	182
#	19707
#	42027
#	57652
#	73662
#	93165
#	107325
#	125435
#	143302
#	162480
#
# Disc length: 2462 seconds
#
# Revision: 1
# Processed by: cddbd v1.5.2PL0 Copyright (c) Steve Scherf et al.
# Submitted via: EasyCDDAExtractor 15.3.0.1
#
DISCID=7b099c0a
DTITLE=Mijares - Un Hombre Discreto
DYEAR=1989
DGENRE=Latin
TTITLE0=No Es Normal
TTITLE1=Hombre Discreto
TTITLE2=Para Amarnos Mas
TTITLE3=Me Acordare De Ti
TTITLE4=Piel De Luna
TTITLE5=Baño De Mujeres
TTITLE6=Leña Seca
TTITLE7=Fuera De Combate
TTITLE8=No Busques Mas
TTITLE9=Alfonsina Y El Mar
EXTD=
EXTT0=
EXTT1=
EXTT2=
EXTT3=
EXTT4=
EXTT5=
EXTT6=
EXTT7=
EXTT8=
EXTT9=
PLAYORDER=
